<?xml version="1.0" encoding="utf-8"?>
<!-- Generator: Adobe Illustrator 19.0.0, SVG Export Plug-In . SVG Version: 6.00 Build 0)  -->
<svg version="1.1" id="Layer_1" xmlns="http://www.w3.org/2000/svg" xmlns:xlink="http://www.w3.org/1999/xlink" x="0px" y="0px"
	 viewBox="0 0 780 240" enable-background="new 0 0 780 240" xml:space="preserve">
<path id="XMLID_391_" fill="#666766" d="M15.315,21.102h55.447c32.865,0,49.298,12.931,49.298,38.79
	c0,12.819-5.628,23.476-16.88,31.971c16.321,7.081,24.482,19.713,24.482,37.896c0,13.937-4.807,25.04-14.421,33.312
	c-4.695,3.951-9.726,6.708-15.091,8.272c-5.366,1.565-12.595,2.348-21.687,2.348h-8.608v-39.237h7.713
	c4.545,0,7.75-0.576,9.614-1.732c1.862-1.155,2.794-3.187,2.794-6.093c0-4.919-3.8-7.378-11.402-7.378h-8.72V78.56
	c8.346,0,12.521-2.868,12.521-8.607c0-5.291-3.764-7.937-11.291-7.937h-8.384v111.676H15.315V21.102z"/>
<path id="XMLID_393_" fill="#666766" d="M184.673,21.102v152.59h-41.808V21.102H184.673z"/>
<path id="XMLID_395_" fill="#24B9B6" d="M262.03,59.892c15.798,0,29.344,5.684,40.635,17.048
	c11.291,11.365,16.936,24.984,16.936,40.858c0,16.098-5.72,29.811-17.159,41.138c-11.441,11.329-25.247,16.991-41.417,16.991
	c-16.172,0-29.998-5.682-41.473-17.047c-11.478-11.364-17.215-25.059-17.215-41.082c0-16.321,5.738-30.052,17.215-41.194
	C231.026,65.463,245.187,59.892,262.03,59.892z M262.451,99.542c-5.416,0-10.019,1.963-13.811,5.89
	c-3.791,3.927-5.686,8.733-5.686,14.42c0,5.598,1.917,10.382,5.754,14.352c3.835,3.973,8.416,5.958,13.743,5.958
	c5.416,0,10.041-1.985,13.879-5.958c3.835-3.971,5.754-8.754,5.754-14.352c0-5.686-1.896-10.493-5.687-14.42
	C272.606,101.506,267.956,99.542,262.451,99.542z"/>
<path id="XMLID_398_" fill="#666766" d="M396.511,127.746v38.344c-6.037,2.235-11.813,3.354-17.328,3.354
	c-13.489,0-24.911-5.104-34.263-15.314c-9.354-10.21-14.029-22.693-14.029-37.449c0-15.947,5.626-29.4,16.88-40.355
	c11.252-10.955,25.077-16.433,41.473-16.433c8.72,0,17.065,1.752,25.04,5.254c7.973,3.504,14.234,8.199,18.779,14.085
	c7.602,9.764,11.402,23.922,11.402,42.479v36.667c0,19.897-5.645,36.051-16.936,48.459c-11.289,12.409-25.99,18.613-44.099,18.613
	c-5.516,0-12.483-1.38-20.904-4.137v-38.008c5.439,2.98,10.955,4.472,16.544,4.472c7.527,0,13.34-2.479,17.439-7.434
	c4.098-4.957,6.146-12.054,6.146-21.296v-41.92c0-11.699-4.732-17.551-14.196-17.551c-4.024,0-7.545,1.548-10.564,4.639
	c-3.018,3.093-4.527,6.651-4.527,10.676c0,4.248,1.434,7.789,4.304,10.62c2.868,2.833,6.428,4.248,10.675,4.248
	C391.181,129.759,393.899,129.088,396.511,127.746z"/>
<path id="XMLID_400_" fill="#999999" d="M510.868,62.239v111.452H469.06V62.239H510.868z"/>
<g id="Layer_2">
	<circle id="XMLID_406_" fill="#24B9B6" cx="490.035" cy="33" r="20.833"/>
</g>
<path id="XMLID_402_" fill="#999999" d="M634.842,173.691h-41.809v-62.937c0-6.408-2.646-9.614-7.938-9.614
	c-5.217,0-7.825,3.206-7.825,9.614v62.937h-41.809v-62.154c0-14.532,4.808-26.773,14.421-36.722s21.388-14.924,35.325-14.924
	c15.947,0,28.729,5.776,38.343,17.327c7.526,9.018,11.291,21.575,11.291,37.672V173.691z"/>
<path id="XMLID_404_" fill="#999999" d="M768.763,124.729H705.38c-0.97-3.204-1.454-6.148-1.454-8.831
	c0-3.726,0.671-7.378,2.013-10.956h21.239c-1.491-8.272-6.148-12.408-13.973-12.408c-5.218,0-9.466,2.218-12.744,6.651
	c-3.28,4.435-4.919,10.117-4.919,17.047c0,7.229,1.583,13.079,4.751,17.551c3.167,4.472,7.322,6.707,12.465,6.707
	c4.173,0,8.197-2.085,12.072-6.26l23.812,28.617c-11.105,8.72-23.439,13.079-37.002,13.079c-16.545,0-30.444-5.551-41.697-16.656
	c-11.254-11.104-16.88-24.854-16.88-41.25c0-16.321,5.683-30.107,17.048-41.361c11.364-11.252,25.32-16.88,41.864-16.88
	c16.171,0,29.753,5.497,40.747,16.489c10.991,10.994,16.488,24.538,16.488,40.635C769.21,118.543,769.06,121.151,768.763,124.729z"
	/>
</svg>
